<svg width="32" height="32" viewBox="0 0 32 32" fill="none" xmlns="http://www.w3.org/2000/svg">
<g clip-path="url(#clip0_1_103)">
<path d="M1.7143 20C1.7143 20.3156 1.97016 20.5714 2.28573 20.5714H29.7143C30.0299 20.5714 30.2857 20.3156 30.2857 20V2.28571H1.7143V20Z" fill="white"/>
<path d="M31.4286 0H0.571429C0.255859 0 0 0.255859 0 0.571429C0 0.886998 0.255859 1.14286 0.571429 1.14286H31.4286C31.7441 1.14286 32 0.886998 32 0.571429C32 0.255859 31.7441 0 31.4286 0Z" fill="white"/>
<path d="M20.5714 29.7143H16.5714V22.8572H17.1429C17.4584 22.8572 17.7143 22.6013 17.7143 22.2857V21.7143H14.2857V22.2857C14.2857 22.6013 14.5416 22.8572 14.8572 22.8572H15.4286V29.7143H11.4286C10.4819 29.7143 9.7143 30.4819 9.7143 31.4286V32H22.2857V31.4286C22.2857 30.4819 21.5182 29.7143 20.5714 29.7143Z" fill="white"/>
</g>
<defs>
<clipPath id="clip0_1_103">
<rect width="32" height="32" fill="white"/>
</clipPath>
</defs>
</svg>
