<svg width="23" height="23" viewBox="0 0 23 23" fill="none" xmlns="http://www.w3.org/2000/svg">
<path d="M17.8478 12.3517C17.7365 12.2402 17.6043 12.1517 17.4587 12.0913C17.3131 12.031 17.157 11.9999 16.9995 11.9999C16.8419 11.9999 16.6858 12.031 16.5402 12.0913C16.3946 12.1517 16.2624 12.2402 16.1511 12.3517L14.2383 14.2645C13.3515 14.0005 11.6967 13.4005 10.6479 12.3517C9.59913 11.3029 8.99913 9.64814 8.73513 8.76135L10.6479 6.84857C10.7594 6.73723 10.8479 6.60498 10.9083 6.45941C10.9687 6.31383 10.9998 6.15778 10.9998 6.00018C10.9998 5.84258 10.9687 5.68653 10.9083 5.54095C10.8479 5.39538 10.7594 5.26313 10.6479 5.15179L5.84796 0.351838C5.73662 0.240304 5.60438 0.15182 5.4588 0.0914472C5.31322 0.031075 5.15717 0 4.99957 0C4.84197 0 4.68592 0.031075 4.54034 0.0914472C4.39477 0.15182 4.26252 0.240304 4.15118 0.351838L0.896812 3.60621C0.440817 4.0622 0.184019 4.68859 0.193619 5.32819C0.221219 7.03697 0.673615 12.9721 5.35117 17.6497C10.0287 22.3272 15.9639 22.7784 17.6738 22.8072H17.7074C18.341 22.8072 18.9398 22.5576 19.3934 22.104L22.6478 18.8497C22.7593 18.7383 22.8478 18.6061 22.9082 18.4605C22.9686 18.3149 22.9996 18.1589 22.9996 18.0013C22.9996 17.8437 22.9686 17.6876 22.9082 17.542C22.8478 17.3965 22.7593 17.2642 22.6478 17.1529L17.8478 12.3517ZM17.6954 20.406C16.1979 20.3808 11.0739 19.9788 7.04795 15.9517C3.00879 11.9125 2.6176 6.77057 2.5936 5.30299L4.99957 2.89701L8.10274 6.00018L6.55116 7.55177C6.41011 7.6927 6.30641 7.86657 6.24942 8.05764C6.19243 8.24872 6.18396 8.45098 6.22476 8.64615C6.25356 8.78415 6.95795 12.0565 8.94993 14.0485C10.9419 16.0405 14.2143 16.7449 14.3523 16.7737C14.5473 16.8156 14.7498 16.8078 14.941 16.751C15.1323 16.6942 15.3062 16.5901 15.4467 16.4485L16.9995 14.8969L20.1026 18.0001L17.6954 20.406V20.406Z" fill="#96BB7C"/>
</svg>
